<?xml version="1.0" encoding="UTF-8"?>
<svg xmlns="http://www.w3.org/2000/svg" xmlns:xlink="http://www.w3.org/1999/xlink" viewBox="0 0 48 48" width="48px" height="48px">
<g id="surface8524284">
<path style=" stroke:none;fill-rule:nonzero;fill:rgb(28.235295%,70.980394%,39.215687%);fill-opacity:1;" d="M 35.761719 26.359375 L 35.769531 26.359375 C 35.769531 26.359375 32 31.890625 28.828125 36 C 26.089844 39.550781 25.289062 42.589844 25.058594 44.058594 C 24.96875 44.601562 24.53125 45 24 45 C 23.46875 45 23.03125 44.601562 22.941406 44.058594 C 22.710938 42.589844 21.910156 39.550781 19.171875 36 C 18.75 35.449219 18.320312 34.878906 17.890625 34.300781 L 28.238281 22 L 36.570312 12.121094 C 37.488281 14.050781 38 16.210938 38 18.5 C 38 21.398438 37.171875 24.089844 35.761719 26.359375 Z M 35.761719 26.359375 "/>
<path style=" stroke:none;fill-rule:nonzero;fill:rgb(98.823529%,77.64706%,5.490196%);fill-opacity:1;" d="M 28.238281 22 L 17.890625 34.300781 C 15.070312 30.519531 12.230469 26.359375 12.230469 26.359375 L 12.238281 26.359375 C 11.941406 25.878906 11.671875 25.390625 11.441406 24.878906 L 19.761719 15 C 18.96875 15.949219 18.5 17.171875 18.5 18.5 C 18.5 21.539062 20.960938 24 24 24 C 25.710938 24 27.238281 23.21875 28.238281 22 Z M 28.238281 22 "/>
<path style=" stroke:none;fill-rule:nonzero;fill:rgb(17.254902%,52.156866%,92.156863%);fill-opacity:1;" d="M 28.398438 4.738281 L 19.828125 14.921875 L 13.269531 9.199219 C 15.828125 6.019531 19.691406 4 24 4 C 25.539062 4 27.019531 4.261719 28.398438 4.738281 Z M 28.398438 4.738281 "/>
<path style=" stroke:none;fill-rule:nonzero;fill:rgb(92.941177%,34.117648%,28.235295%);fill-opacity:1;" d="M 19.828125 14.921875 L 19.761719 15 L 11.441406 24.878906 C 10.519531 22.949219 10 20.789062 10 18.5 C 10 14.960938 11.230469 11.710938 13.269531 9.199219 Z M 19.828125 14.921875 "/>
<path style=" stroke:none;fill-rule:nonzero;fill:rgb(33.725491%,58.431375%,96.470588%);fill-opacity:1;" d="M 28.238281 22 C 29.03125 21.050781 29.5 19.828125 29.5 18.5 C 29.5 15.460938 27.039062 13 24 13 C 22.289062 13 20.761719 13.78125 19.761719 15 L 28.398438 4.738281 C 31.988281 5.960938 34.929688 8.648438 36.570312 12.121094 Z M 28.238281 22 "/>
</g>
</svg>
